<svg xmlns="http://www.w3.org/2000/svg" viewBox="0 0 132.27 132.61" fill="white"><defs><style></style></defs><title>bball-icon-white</title><g id="Layer_2" data-name="Layer 2"><g id="Layer_1-2" data-name="Layer 1"><path class="cls-1" d="M0,66.82C-1,30.9,29.7.34,65.08,0c36.24-.34,67.51,28.87,67.19,66.71-.31,36.56-29.4,66.24-67,65.89S-.41,100.76,0,66.82Zm32.7-20.89c3.62,4.12,7.19,7.47,9.85,11.43A104.71,104.71,0,0,1,50.32,71.7c5.23,11.27,10.3,22.61,18,32.5,4.27,5.48,8.29,11.21,14.23,15.15,2.64,1.76,5.34,2.8,8.52,1.53a50.13,50.13,0,0,0,24.61-20.63c1.44-2.31,1.65-4.56-.22-6.68-4.39-5-8.29-10.58-13.35-14.76A275.25,275.25,0,0,0,43.17,41.53c-2.27-1.06-4.7-1.79-7.3-2.76Zm88.88,42.51c4.57-9.81,4.89-22.5,4-30.44a28.26,28.26,0,0,0-11.74-20.25,45.46,45.46,0,0,0-16.12-7.07A101.66,101.66,0,0,0,73.4,28.06c-8.76,0-17.59.79-26.18-1.77a3.15,3.15,0,0,0-3.93,1.39c-.85,1.32-1.85,2.54-2.59,3.55,10.32,5.55,20.38,10.5,30,16.22C87.1,57.23,102.88,68,116.07,82,117.9,84,119.58,86.09,121.61,88.44Zm-44.42,36.8c-.34-.65-.44-1.15-.74-1.39-12.45-10-20.57-23.28-27.76-37.18-3-5.78-5.41-11.84-8-17.81C38.2,63.09,35,58,29.26,54.35c-2.32,3.41-2.53,7.25-3.47,10.82-3.62,13.85-3.58,27.57,2,41,2.64,6.32,6.66,11.28,13.07,14.43,10.89,5.34,22.34,6.15,34.11,5.28A12.83,12.83,0,0,0,77.19,125.24Zm37.89-94.42C105.93,20,95.86,12,82.62,8.81A23.36,23.36,0,0,0,75,8.16c-8.08.82-15,4.4-21.32,9.41a10.84,10.84,0,0,0-1.5,2.28c2.65.26,4.7.56,6.77.65,9.38.36,18.81.27,28.15,1.11A65.71,65.71,0,0,1,115.08,30.82ZM21.66,51.58c-6.76-.27-9.76,3.77-12,8.31-5.24,10.57-3.17,21,1.61,31.05,1.79,3.77,4.05,7.31,6.1,11l1.23-.31C13,84.65,16.89,68.35,21.66,51.58ZM29.41,35.8c-4.06-.58-7.45-1.15-10.86-1.49a3.8,3.8,0,0,0-2.93.8,31.8,31.8,0,0,0-7,14.25c6.33-5,8.68-6.32,13.24-5.71,3.1.42,4.48-.52,5.36-3.21A46.53,46.53,0,0,1,29.41,35.8Zm-8.23-9.62,12.7,3.07,4-5.85-6.93-6.57ZM56.23,6.78a48,48,0,0,0-14.64,4.9A3.56,3.56,0,0,0,40,14.4c.1,1.37,2.75,2.47,4,1.77a31.24,31.24,0,0,0,4.06-2.85C50.58,11.38,53,9.38,56.23,6.78Z"/></g></g></svg>