<svg xmlns="http://www.w3.org/2000/svg" viewBox="0 0 439.2 134"><defs><style>.cls-1{font-size:40px;font-family:Roboto-Bold, Roboto;font-weight:700;}.cls-1,.cls-10{fill:#fff;}.cls-1,.cls-8{letter-spacing:0.11em;}.cls-2{letter-spacing:0.12em;}.cls-3{letter-spacing:0.03em;}.cls-4{letter-spacing:0.08em;}.cls-5{letter-spacing:0.11em;}.cls-6{letter-spacing:0.09em;}.cls-7{letter-spacing:0.12em;}.cls-9{letter-spacing:0.09em;}</style></defs><title>logo-white-nobg</title><g id="Layer_2" data-name="Layer 2"><g id="Layer_1-2" data-name="Layer 1"><text class="cls-1" transform="translate(172.99 40.76)">P<tspan class="cls-2" x="30.12" y="0">L</tspan><tspan class="cls-3" x="56.47" y="0">A</tspan><tspan x="84.78" y="0">YER </tspan><tspan class="cls-4"><tspan x="0" y="41">L</tspan><tspan class="cls-5" x="24.73" y="41">ONGEV</tspan><tspan class="cls-6" x="178.09" y="41">I</tspan><tspan class="cls-7" x="193.5" y="41">T</tspan><tspan class="cls-8" x="222.88" y="41">Y </tspan></tspan><tspan x="0" y="82">PREDI</tspan><tspan class="cls-6" x="133.08" y="82">C</tspan><tspan class="cls-9" x="163.01" y="82">T</tspan><tspan class="cls-5" x="191.53" y="82">OR</tspan></text><path class="cls-10" d="M0,67.21C-1,31.29,29.7.74,65.08.4c36.24-.35,67.51,28.86,67.19,66.7-.31,36.56-29.4,66.24-67,65.9S-.41,101.15,0,67.21Zm32.7-20.89c3.62,4.12,7.19,7.47,9.85,11.43A104.24,104.24,0,0,1,50.32,72.1c5.23,11.26,10.3,22.61,18,32.49,4.27,5.48,8.29,11.21,14.23,15.15,2.64,1.76,5.34,2.8,8.52,1.53a50.17,50.17,0,0,0,24.61-20.62c1.44-2.32,1.65-4.57-.22-6.69-4.39-5-8.29-10.57-13.35-14.76A275.59,275.59,0,0,0,43.17,41.93c-2.27-1.07-4.7-1.79-7.3-2.77Zm88.88,42.51c4.57-9.81,4.89-22.49,4-30.44a28.28,28.28,0,0,0-11.74-20.25,45.64,45.64,0,0,0-16.12-7.07A102.17,102.17,0,0,0,73.4,28.45c-8.76,0-17.59.8-26.18-1.77a3.16,3.16,0,0,0-3.93,1.39c-.85,1.32-1.85,2.55-2.59,3.56,10.32,5.54,20.38,10.49,30,16.21,16.42,9.78,32.2,20.51,45.39,34.58C117.9,84.37,119.58,86.48,121.61,88.83ZM77.19,125.64c-.34-.66-.44-1.15-.74-1.39C64,114.23,55.88,101,48.69,87.06c-3-5.77-5.41-11.84-8-17.81C38.2,63.48,35,58.34,29.26,54.75c-2.32,3.4-2.53,7.24-3.47,10.81-3.62,13.85-3.58,27.57,2,41,2.64,6.32,6.66,11.28,13.07,14.43C51.75,126.3,63.2,127.1,75,126.23A12.73,12.73,0,0,0,77.19,125.64Zm37.89-94.43c-9.15-10.85-19.22-18.84-32.46-22A23.36,23.36,0,0,0,75,8.55C66.92,9.37,60,13,53.68,18a10.71,10.71,0,0,0-1.5,2.29c2.65.25,4.7.56,6.77.64,9.38.37,18.81.27,28.15,1.11A65.85,65.85,0,0,1,115.08,31.21ZM21.66,52c-6.76-.27-9.76,3.77-12,8.31-5.24,10.58-3.17,21,1.61,31.05,1.79,3.77,4.05,7.31,6.1,11l1.23-.31C13,85,16.89,68.74,21.66,52ZM29.41,36.2C25.35,35.62,22,35,18.55,34.7a3.8,3.8,0,0,0-2.93.8,31.8,31.8,0,0,0-7,14.25c6.33-5,8.68-6.32,13.24-5.71,3.1.42,4.48-.52,5.36-3.21A46.59,46.59,0,0,1,29.41,36.2Zm-8.23-9.62,12.7,3.07,4-5.86c-2.42-2.28-4.46-4.22-6.93-6.57ZM56.23,7.18a47.72,47.72,0,0,0-14.64,4.9A3.53,3.53,0,0,0,40,14.79c.1,1.37,2.75,2.47,4,1.77a31.24,31.24,0,0,0,4.06-2.85C50.58,11.77,53,9.78,56.23,7.18Z"/><rect class="cls-10" x="149.27" width="6" height="134"/></g></g></svg>